<svg xmlns="http://www.w3.org/2000/svg" xmlns:xlink="http://www.w3.org/1999/xlink" width="201" zoomAndPan="magnify" viewBox="0 0 150.75 56.999997" height="76" preserveAspectRatio="xMidYMid meet" version="1.0"><defs><g/><clipPath id="8f22a34fd3"><path d="M 0 0.046875 L 150.5 0.046875 L 150.5 56.953125 L 0 56.953125 Z M 0 0.046875 " clip-rule="nonzero"/></clipPath><clipPath id="ff10c9231c"><path d="M 0 0.046875 L 57.65625 0.046875 L 57.65625 56.953125 L 0 56.953125 Z M 0 0.046875 " clip-rule="nonzero"/></clipPath></defs><g clip-path="url(#8f22a34fd3)"><path fill="#ffffff" d="M 0 0.046875 L 150.5 0.046875 L 150.5 56.953125 L 0 56.953125 Z M 0 0.046875 " fill-opacity="1" fill-rule="nonzero"/><path fill="#ffffff" d="M 0 0.046875 L 150.5 0.046875 L 150.5 56.953125 L 0 56.953125 Z M 0 0.046875 " fill-opacity="1" fill-rule="nonzero"/></g><g clip-path="url(#ff10c9231c)"><path fill="#f68712" d="M 28.792969 50.851562 C 24.964844 50.871094 21.183594 52.363281 17.621094 54.242188 L 19.035156 56.691406 C 22.160156 55.054688 25.511719 53.742188 28.792969 53.710938 C 32.074219 53.742188 35.421875 55.054688 38.558594 56.691406 L 39.972656 54.242188 C 36.402344 52.363281 32.628906 50.871094 28.792969 50.851562 Z M 47.148438 51.738281 C 46.570312 51.738281 46.09375 52.207031 46.09375 52.785156 C 46.09375 53.363281 46.570312 53.84375 47.148438 53.84375 C 47.726562 53.84375 48.195312 53.363281 48.195312 52.785156 C 48.195312 52.207031 47.726562 51.738281 47.148438 51.738281 Z M 52.921875 40.96875 C 52.332031 40.96875 51.867188 41.4375 51.867188 42.015625 C 51.867188 42.605469 52.332031 43.074219 52.921875 43.074219 C 53.5 43.074219 53.96875 42.605469 53.96875 42.015625 C 53.96875 41.4375 53.5 40.96875 52.921875 40.96875 Z M 41.363281 15.136719 C 40.773438 15.136719 40.308594 15.605469 40.308594 16.183594 C 40.308594 16.773438 40.773438 17.242188 41.363281 17.242188 C 41.941406 17.242188 42.410156 16.773438 42.410156 16.183594 C 42.410156 15.605469 41.941406 15.136719 41.363281 15.136719 Z M 28.792969 3.835938 C 29.371094 3.835938 29.847656 3.367188 29.847656 2.789062 C 29.847656 2.199219 29.371094 1.730469 28.792969 1.730469 C 28.214844 1.730469 27.746094 2.199219 27.746094 2.789062 C 27.746094 3.367188 28.214844 3.835938 28.792969 3.835938 Z M 28.792969 0.0507812 C 30.304688 0.0507812 31.527344 1.277344 31.527344 2.789062 C 31.527344 3.769531 31.007812 4.636719 30.214844 5.113281 L 30.214844 18.84375 L 30.226562 19.542969 C 30.226562 19.777344 30.226562 20.011719 30.214844 20.234375 C 30.238281 21.089844 30.304688 21.933594 30.417969 22.757812 C 32.363281 38.011719 46.023438 43.308594 57.585938 50.359375 L 56.160156 52.832031 L 56.105469 52.796875 C 51.308594 49.871094 46.070312 47.210938 41.375 43.929688 C 37.347656 41.847656 33.152344 40.246094 28.792969 40.226562 C 24.429688 40.246094 20.246094 41.847656 16.21875 43.929688 C 11.515625 47.210938 6.273438 49.871094 1.480469 52.796875 L 1.425781 52.832031 L 0 50.359375 C 11.570312 43.308594 25.230469 38.011719 27.179688 22.757812 C 27.277344 21.933594 27.347656 21.089844 27.367188 20.234375 C 27.367188 20.011719 27.355469 19.777344 27.355469 19.542969 L 27.367188 18.84375 L 27.367188 5.113281 C 26.589844 4.636719 26.066406 3.769531 26.066406 2.789062 C 26.066406 1.277344 27.289062 0.0507812 28.792969 0.0507812 Z M 28.792969 37.34375 C 30.773438 37.355469 32.71875 37.65625 34.621094 38.15625 C 34.34375 37.855469 34.078125 37.554688 33.808594 37.234375 C 31.527344 34.5625 29.859375 31.636719 28.792969 28.445312 C 27.722656 31.636719 26.066406 34.5625 23.785156 37.234375 C 23.519531 37.554688 23.242188 37.855469 22.960938 38.15625 C 24.875 37.65625 26.8125 37.355469 28.792969 37.34375 Z M 41.363281 13.457031 C 39.851562 13.457031 38.625 14.683594 38.625 16.183594 C 38.625 17.171875 39.148438 18.042969 39.941406 18.519531 L 39.941406 18.941406 L 39.929688 19.542969 L 39.929688 20.023438 C 39.949219 20.535156 39.996094 21.054688 40.0625 21.566406 L 40.0625 21.601562 C 40.808594 27.753906 45.367188 31.746094 50.398438 34.929688 L 51.820312 32.480469 C 47.484375 29.722656 43.488281 26.230469 42.886719 21.257812 L 42.875 21.222656 C 42.832031 20.800781 42.789062 20.378906 42.777344 19.953125 L 42.777344 18.519531 C 43.566406 18.042969 44.089844 17.171875 44.089844 16.183594 C 44.089844 14.683594 42.867188 13.457031 41.363281 13.457031 Z M 52.921875 39.289062 C 52.433594 39.289062 51.988281 39.414062 51.585938 39.636719 C 44.578125 35.550781 37.714844 30.792969 36.648438 22.011719 L 36.648438 21.980469 C 36.570312 21.355469 36.511719 20.722656 36.5 20.089844 L 36.492188 19.542969 L 36.5 18.921875 L 36.5 8.808594 L 33.652344 8.808594 L 33.652344 18.898438 L 33.644531 19.542969 L 33.652344 20.15625 C 33.675781 20.878906 33.730469 21.601562 33.820312 22.324219 L 33.820312 22.359375 C 35.089844 32.28125 42.355469 37.5 50.1875 42.09375 C 50.230469 43.574219 51.433594 44.753906 52.921875 44.753906 C 54.425781 44.753906 55.648438 43.53125 55.648438 42.015625 C 55.648438 40.515625 54.425781 39.289062 52.921875 39.289062 Z M 47.148438 50.058594 C 46.691406 50.058594 46.257812 50.171875 45.878906 50.371094 C 40.394531 47.265625 34.800781 44.574219 28.792969 44.542969 C 22.796875 44.574219 17.1875 47.265625 11.703125 50.371094 C 11.324219 50.171875 10.902344 50.058594 10.433594 50.058594 C 8.933594 50.058594 7.710938 51.285156 7.710938 52.785156 C 7.710938 54.296875 8.933594 55.523438 10.433594 55.523438 C 11.949219 55.523438 13.171875 54.296875 13.171875 52.796875 C 18.121094 49.972656 23.320312 47.414062 28.792969 47.390625 C 34.265625 47.414062 39.472656 49.972656 44.410156 52.796875 C 44.410156 54.296875 45.636719 55.523438 47.148438 55.523438 C 48.652344 55.523438 49.875 54.296875 49.875 52.785156 C 49.875 51.285156 48.652344 50.058594 47.148438 50.058594 Z M 10.433594 51.738281 C 11.023438 51.738281 11.492188 52.207031 11.492188 52.785156 C 11.492188 53.363281 11.023438 53.84375 10.433594 53.84375 C 9.855469 53.84375 9.390625 53.363281 9.390625 52.785156 C 9.390625 52.207031 9.855469 51.738281 10.433594 51.738281 Z M 4.671875 40.96875 C 5.25 40.96875 5.71875 41.4375 5.71875 42.015625 C 5.71875 42.605469 5.25 43.074219 4.671875 43.074219 C 4.082031 43.074219 3.617188 42.605469 3.617188 42.015625 C 3.617188 41.4375 4.082031 40.96875 4.671875 40.96875 Z M 16.230469 15.136719 C 16.808594 15.136719 17.277344 15.605469 17.277344 16.183594 C 17.277344 16.773438 16.808594 17.242188 16.230469 17.242188 C 15.652344 17.242188 15.175781 16.773438 15.175781 16.183594 C 15.175781 15.605469 15.652344 15.136719 16.230469 15.136719 Z M 16.230469 13.457031 C 17.734375 13.457031 18.957031 14.683594 18.957031 16.183594 C 18.957031 17.171875 18.433594 18.042969 17.65625 18.519531 L 17.65625 20.023438 C 17.632812 20.535156 17.589844 21.054688 17.535156 21.566406 L 17.523438 21.601562 C 16.777344 27.753906 12.226562 31.746094 7.1875 34.929688 L 5.773438 32.480469 C 10.101562 29.722656 14.09375 26.230469 14.695312 21.257812 L 14.707031 21.222656 C 14.753906 20.800781 14.796875 20.378906 14.808594 19.953125 L 14.820312 19.542969 L 14.808594 18.964844 L 14.808594 18.519531 C 14.019531 18.042969 13.496094 17.171875 13.496094 16.183594 C 13.496094 14.683594 14.71875 13.457031 16.230469 13.457031 Z M 4.671875 39.289062 C 5.152344 39.289062 5.605469 39.414062 5.996094 39.636719 C 13.015625 35.550781 19.871094 30.792969 20.9375 22.011719 L 20.9375 21.980469 C 21.015625 21.355469 21.070312 20.722656 21.09375 20.089844 L 21.09375 8.808594 L 23.929688 8.808594 L 23.929688 18.898438 L 23.941406 19.542969 L 23.929688 20.15625 C 23.917969 20.878906 23.863281 21.601562 23.761719 22.324219 L 23.761719 22.359375 C 22.496094 32.28125 15.230469 37.5 7.398438 42.09375 C 7.363281 43.574219 6.152344 44.753906 4.671875 44.753906 C 3.160156 44.753906 1.9375 43.53125 1.9375 42.015625 C 1.9375 40.515625 3.160156 39.289062 4.671875 39.289062 Z M 4.671875 39.289062 " fill-opacity="1" fill-rule="evenodd"/></g><g fill="#000000" fill-opacity="1"><g transform="translate(66.100321, 19.567446)"><g><path d="M 1.046875 0 L 1.046875 -9.71875 L 3.125 -9.71875 L 3.125 0 Z M 1.046875 0 "/></g></g></g><g fill="#000000" fill-opacity="1"><g transform="translate(70.26459, 19.567446)"><g><path d="M 0.8125 0 L 0.8125 -6.65625 L 2.53125 -6.65625 L 2.53125 -5.8125 C 2.78125 -6.101562 3.09375 -6.347656 3.46875 -6.546875 C 3.84375 -6.753906 4.269531 -6.859375 4.75 -6.859375 C 5.332031 -6.859375 5.820312 -6.734375 6.21875 -6.484375 C 6.625 -6.242188 6.929688 -5.914062 7.140625 -5.5 C 7.347656 -5.09375 7.453125 -4.632812 7.453125 -4.125 L 7.453125 0 L 5.515625 0 L 5.515625 -3.875 C 5.515625 -4.3125 5.390625 -4.632812 5.140625 -4.84375 C 4.898438 -5.0625 4.597656 -5.171875 4.234375 -5.171875 C 3.890625 -5.171875 3.59375 -5.082031 3.34375 -4.90625 C 3.09375 -4.726562 2.894531 -4.539062 2.75 -4.34375 L 2.75 0 Z M 0.8125 0 "/></g></g></g><g fill="#000000" fill-opacity="1"><g transform="translate(78.454316, 19.567446)"><g><path d="M 1.46875 0 L 1.46875 -5.03125 L 0.3125 -5.03125 L 0.3125 -6.65625 L 1.46875 -6.65625 L 1.46875 -7.3125 C 1.46875 -7.988281 1.597656 -8.515625 1.859375 -8.890625 C 2.128906 -9.265625 2.460938 -9.523438 2.859375 -9.671875 C 3.265625 -9.828125 3.675781 -9.90625 4.09375 -9.90625 C 4.394531 -9.90625 4.6875 -9.878906 4.96875 -9.828125 C 5.257812 -9.773438 5.515625 -9.707031 5.734375 -9.625 L 5.734375 -8 C 5.585938 -8.070312 5.410156 -8.132812 5.203125 -8.1875 C 4.992188 -8.25 4.785156 -8.28125 4.578125 -8.28125 C 4.265625 -8.28125 3.988281 -8.207031 3.75 -8.0625 C 3.519531 -7.925781 3.40625 -7.648438 3.40625 -7.234375 L 3.40625 -6.65625 L 5.421875 -6.65625 L 5.421875 -5.03125 L 3.40625 -5.03125 L 3.40625 0 Z M 1.46875 0 "/></g></g></g><g fill="#000000" fill-opacity="1"><g transform="translate(84.020552, 19.567446)"><g><path d="M 4.125 0.1875 C 3.476562 0.1875 2.875 0.0546875 2.3125 -0.203125 C 1.757812 -0.460938 1.304688 -0.851562 0.953125 -1.375 C 0.609375 -1.90625 0.4375 -2.554688 0.4375 -3.328125 C 0.4375 -4.109375 0.609375 -4.757812 0.953125 -5.28125 C 1.304688 -5.800781 1.757812 -6.191406 2.3125 -6.453125 C 2.875 -6.722656 3.476562 -6.859375 4.125 -6.859375 C 4.769531 -6.859375 5.367188 -6.722656 5.921875 -6.453125 C 6.484375 -6.191406 6.9375 -5.800781 7.28125 -5.28125 C 7.625 -4.757812 7.796875 -4.109375 7.796875 -3.328125 C 7.796875 -2.554688 7.625 -1.90625 7.28125 -1.375 C 6.9375 -0.851562 6.484375 -0.460938 5.921875 -0.203125 C 5.367188 0.0546875 4.769531 0.1875 4.125 0.1875 Z M 4.125 -1.546875 C 4.675781 -1.546875 5.097656 -1.710938 5.390625 -2.046875 C 5.679688 -2.390625 5.828125 -2.816406 5.828125 -3.328125 C 5.828125 -3.847656 5.679688 -4.273438 5.390625 -4.609375 C 5.097656 -4.953125 4.675781 -5.125 4.125 -5.125 C 3.5625 -5.125 3.132812 -4.953125 2.84375 -4.609375 C 2.5625 -4.273438 2.421875 -3.847656 2.421875 -3.328125 C 2.421875 -2.816406 2.5625 -2.390625 2.84375 -2.046875 C 3.132812 -1.710938 3.5625 -1.546875 4.125 -1.546875 Z M 4.125 -1.546875 "/></g></g></g><g fill="#000000" fill-opacity="1"><g transform="translate(92.265801, 19.567446)"><g><path d="M 0.8125 0 L 0.8125 -6.65625 L 2.53125 -6.65625 L 2.53125 -5.65625 C 2.769531 -6.03125 3.117188 -6.328125 3.578125 -6.546875 C 4.046875 -6.773438 4.597656 -6.859375 5.234375 -6.796875 L 5.234375 -4.90625 C 4.691406 -5.007812 4.191406 -4.96875 3.734375 -4.78125 C 3.285156 -4.601562 2.957031 -4.3125 2.75 -3.90625 L 2.75 0 Z M 0.8125 0 "/></g></g></g><g fill="#000000" fill-opacity="1"><g transform="translate(97.693225, 19.567446)"><g><path d="M 0.8125 0 L 0.8125 -6.65625 L 2.53125 -6.65625 L 2.53125 -5.890625 C 2.695312 -6.097656 2.96875 -6.3125 3.34375 -6.53125 C 3.71875 -6.75 4.15625 -6.859375 4.65625 -6.859375 C 5.15625 -6.859375 5.570312 -6.765625 5.90625 -6.578125 C 6.238281 -6.390625 6.5 -6.15625 6.6875 -5.875 C 6.96875 -6.132812 7.296875 -6.363281 7.671875 -6.5625 C 8.046875 -6.757812 8.457031 -6.859375 8.90625 -6.859375 C 9.375 -6.859375 9.769531 -6.773438 10.09375 -6.609375 C 10.414062 -6.453125 10.671875 -6.242188 10.859375 -5.984375 C 11.046875 -5.722656 11.179688 -5.4375 11.265625 -5.125 C 11.347656 -4.8125 11.390625 -4.507812 11.390625 -4.21875 L 11.390625 0 L 9.46875 0 L 9.46875 -4.09375 C 9.46875 -4.445312 9.367188 -4.710938 9.171875 -4.890625 C 8.972656 -5.078125 8.726562 -5.171875 8.4375 -5.171875 C 8.175781 -5.171875 7.929688 -5.101562 7.703125 -4.96875 C 7.484375 -4.84375 7.289062 -4.691406 7.125 -4.515625 C 7.125 -4.460938 7.125 -4.410156 7.125 -4.359375 C 7.132812 -4.316406 7.140625 -4.269531 7.140625 -4.21875 L 7.140625 0 L 5.21875 0 L 5.21875 -4.09375 C 5.21875 -4.445312 5.117188 -4.710938 4.921875 -4.890625 C 4.734375 -5.078125 4.484375 -5.171875 4.171875 -5.171875 C 3.890625 -5.171875 3.617188 -5.09375 3.359375 -4.9375 C 3.109375 -4.78125 2.90625 -4.597656 2.75 -4.390625 L 2.75 0 Z M 0.8125 0 "/></g></g></g><g fill="#000000" fill-opacity="1"><g transform="translate(109.839002, 19.567446)"><g><path d="M 2.6875 0.1875 C 2.28125 0.1875 1.898438 0.109375 1.546875 -0.046875 C 1.191406 -0.203125 0.90625 -0.429688 0.6875 -0.734375 C 0.476562 -1.035156 0.375 -1.40625 0.375 -1.84375 C 0.375 -2.269531 0.460938 -2.625 0.640625 -2.90625 C 0.816406 -3.1875 1.046875 -3.410156 1.328125 -3.578125 C 1.617188 -3.753906 1.9375 -3.878906 2.28125 -3.953125 C 2.625 -4.023438 2.960938 -4.0625 3.296875 -4.0625 C 3.566406 -4.0625 3.835938 -4.046875 4.109375 -4.015625 C 4.378906 -3.984375 4.640625 -3.941406 4.890625 -3.890625 L 4.890625 -4.125 C 4.890625 -4.445312 4.753906 -4.710938 4.484375 -4.921875 C 4.222656 -5.140625 3.832031 -5.25 3.3125 -5.25 C 2.851562 -5.25 2.421875 -5.191406 2.015625 -5.078125 C 1.617188 -4.972656 1.265625 -4.859375 0.953125 -4.734375 L 0.953125 -6.40625 C 1.222656 -6.5 1.59375 -6.597656 2.0625 -6.703125 C 2.53125 -6.804688 3.019531 -6.859375 3.53125 -6.859375 C 4.195312 -6.859375 4.773438 -6.753906 5.265625 -6.546875 C 5.765625 -6.347656 6.144531 -6.03125 6.40625 -5.59375 C 6.675781 -5.15625 6.8125 -4.570312 6.8125 -3.84375 L 6.8125 -1.71875 C 6.8125 -1.539062 6.859375 -1.421875 6.953125 -1.359375 C 7.054688 -1.304688 7.164062 -1.28125 7.28125 -1.28125 C 7.34375 -1.28125 7.398438 -1.285156 7.453125 -1.296875 C 7.515625 -1.304688 7.570312 -1.316406 7.625 -1.328125 L 7.625 -0.0625 C 7.476562 -0.0078125 7.3125 0.03125 7.125 0.0625 C 6.945312 0.101562 6.757812 0.125 6.5625 0.125 C 6.25 0.125 5.96875 0.0664062 5.71875 -0.046875 C 5.46875 -0.171875 5.273438 -0.351562 5.140625 -0.59375 L 5.109375 -0.640625 C 4.796875 -0.378906 4.4375 -0.175781 4.03125 -0.03125 C 3.632812 0.113281 3.1875 0.1875 2.6875 0.1875 Z M 3.390625 -1.171875 C 3.648438 -1.171875 3.90625 -1.21875 4.15625 -1.3125 C 4.414062 -1.40625 4.660156 -1.550781 4.890625 -1.75 L 4.890625 -2.765625 C 4.734375 -2.796875 4.550781 -2.828125 4.34375 -2.859375 C 4.132812 -2.890625 3.9375 -2.90625 3.75 -2.90625 C 3.40625 -2.90625 3.085938 -2.835938 2.796875 -2.703125 C 2.503906 -2.578125 2.359375 -2.34375 2.359375 -2 C 2.359375 -1.75 2.457031 -1.546875 2.65625 -1.390625 C 2.851562 -1.242188 3.097656 -1.171875 3.390625 -1.171875 Z M 3.390625 -1.171875 "/></g></g></g><g fill="#000000" fill-opacity="1"><g transform="translate(117.598418, 19.567446)"><g><path d="M 3.71875 0.1875 C 3.289062 0.1875 2.894531 0.117188 2.53125 -0.015625 C 2.164062 -0.160156 1.867188 -0.398438 1.640625 -0.734375 C 1.421875 -1.066406 1.3125 -1.503906 1.3125 -2.046875 L 1.3125 -5.03125 L 0.1875 -5.03125 L 0.1875 -6.65625 L 1.3125 -6.65625 L 1.3125 -8.609375 L 3.25 -9.0625 L 3.25 -6.65625 L 5.34375 -6.65625 L 5.34375 -5.03125 L 3.25 -5.03125 L 3.25 -2.421875 C 3.25 -2.085938 3.332031 -1.835938 3.5 -1.671875 C 3.675781 -1.515625 3.941406 -1.4375 4.296875 -1.4375 C 4.710938 -1.4375 5.117188 -1.507812 5.515625 -1.65625 L 5.515625 -0.09375 C 5.253906 0 4.972656 0.0664062 4.671875 0.109375 C 4.367188 0.160156 4.050781 0.1875 3.71875 0.1875 Z M 3.71875 0.1875 "/></g></g></g><g fill="#000000" fill-opacity="1"><g transform="translate(123.400629, 19.567446)"><g><path d="M 1.796875 -7.765625 C 1.503906 -7.765625 1.242188 -7.851562 1.015625 -8.03125 C 0.785156 -8.207031 0.671875 -8.484375 0.671875 -8.859375 C 0.671875 -9.242188 0.785156 -9.519531 1.015625 -9.6875 C 1.242188 -9.863281 1.503906 -9.953125 1.796875 -9.953125 C 2.109375 -9.953125 2.375 -9.863281 2.59375 -9.6875 C 2.8125 -9.519531 2.921875 -9.242188 2.921875 -8.859375 C 2.921875 -8.484375 2.8125 -8.207031 2.59375 -8.03125 C 2.375 -7.851562 2.109375 -7.765625 1.796875 -7.765625 Z M 0.828125 0 L 0.828125 -6.65625 L 2.765625 -6.65625 L 2.765625 0 Z M 0.828125 0 "/></g></g></g><g fill="#000000" fill-opacity="1"><g transform="translate(127.009659, 19.567446)"><g><path d="M 4.125 0.1875 C 3.476562 0.1875 2.875 0.0546875 2.3125 -0.203125 C 1.757812 -0.460938 1.304688 -0.851562 0.953125 -1.375 C 0.609375 -1.90625 0.4375 -2.554688 0.4375 -3.328125 C 0.4375 -4.109375 0.609375 -4.757812 0.953125 -5.28125 C 1.304688 -5.800781 1.757812 -6.191406 2.3125 -6.453125 C 2.875 -6.722656 3.476562 -6.859375 4.125 -6.859375 C 4.769531 -6.859375 5.367188 -6.722656 5.921875 -6.453125 C 6.484375 -6.191406 6.9375 -5.800781 7.28125 -5.28125 C 7.625 -4.757812 7.796875 -4.109375 7.796875 -3.328125 C 7.796875 -2.554688 7.625 -1.90625 7.28125 -1.375 C 6.9375 -0.851562 6.484375 -0.460938 5.921875 -0.203125 C 5.367188 0.0546875 4.769531 0.1875 4.125 0.1875 Z M 4.125 -1.546875 C 4.675781 -1.546875 5.097656 -1.710938 5.390625 -2.046875 C 5.679688 -2.390625 5.828125 -2.816406 5.828125 -3.328125 C 5.828125 -3.847656 5.679688 -4.273438 5.390625 -4.609375 C 5.097656 -4.953125 4.675781 -5.125 4.125 -5.125 C 3.5625 -5.125 3.132812 -4.953125 2.84375 -4.609375 C 2.5625 -4.273438 2.421875 -3.847656 2.421875 -3.328125 C 2.421875 -2.816406 2.5625 -2.390625 2.84375 -2.046875 C 3.132812 -1.710938 3.5625 -1.546875 4.125 -1.546875 Z M 4.125 -1.546875 "/></g></g></g><g fill="#000000" fill-opacity="1"><g transform="translate(135.254909, 19.567446)"><g><path d="M 0.8125 0 L 0.8125 -6.65625 L 2.53125 -6.65625 L 2.53125 -5.8125 C 2.78125 -6.101562 3.09375 -6.347656 3.46875 -6.546875 C 3.84375 -6.753906 4.269531 -6.859375 4.75 -6.859375 C 5.332031 -6.859375 5.820312 -6.734375 6.21875 -6.484375 C 6.625 -6.242188 6.929688 -5.914062 7.140625 -5.5 C 7.347656 -5.09375 7.453125 -4.632812 7.453125 -4.125 L 7.453125 0 L 5.515625 0 L 5.515625 -3.875 C 5.515625 -4.3125 5.390625 -4.632812 5.140625 -4.84375 C 4.898438 -5.0625 4.597656 -5.171875 4.234375 -5.171875 C 3.890625 -5.171875 3.59375 -5.082031 3.34375 -4.90625 C 3.09375 -4.726562 2.894531 -4.539062 2.75 -4.34375 L 2.75 0 Z M 0.8125 0 "/></g></g></g><g fill="#000000" fill-opacity="1"><g transform="translate(66.100321, 35.838018)"><g><path d="M 3.15625 0 L 3.15625 -7.828125 L 0.1875 -7.828125 L 0.1875 -9.71875 L 8.21875 -9.71875 L 8.21875 -7.828125 L 5.25 -7.828125 L 5.25 0 Z M 3.15625 0 "/></g></g></g><g fill="#000000" fill-opacity="1"><g transform="translate(74.498255, 35.838018)"><g><path d="M 4.296875 0.1875 C 3.597656 0.1875 2.957031 0.0546875 2.375 -0.203125 C 1.789062 -0.460938 1.320312 -0.851562 0.96875 -1.375 C 0.613281 -1.90625 0.4375 -2.554688 0.4375 -3.328125 C 0.4375 -3.960938 0.539062 -4.5 0.75 -4.9375 C 0.96875 -5.382812 1.25 -5.75 1.59375 -6.03125 C 1.9375 -6.3125 2.304688 -6.519531 2.703125 -6.65625 C 3.109375 -6.789062 3.5 -6.859375 3.875 -6.859375 C 4.5625 -6.859375 5.132812 -6.734375 5.59375 -6.484375 C 6.0625 -6.242188 6.421875 -5.921875 6.671875 -5.515625 C 6.929688 -5.109375 7.09375 -4.660156 7.15625 -4.171875 C 7.21875 -3.679688 7.191406 -3.191406 7.078125 -2.703125 L 2.390625 -2.703125 C 2.460938 -2.378906 2.613281 -2.117188 2.84375 -1.921875 C 3.070312 -1.722656 3.351562 -1.578125 3.6875 -1.484375 C 4.019531 -1.390625 4.367188 -1.34375 4.734375 -1.34375 C 5.109375 -1.34375 5.460938 -1.375 5.796875 -1.4375 C 6.140625 -1.507812 6.457031 -1.609375 6.75 -1.734375 L 6.75 -0.21875 C 6.425781 -0.09375 6.0625 0.00390625 5.65625 0.078125 C 5.25 0.148438 4.796875 0.1875 4.296875 0.1875 Z M 2.375 -3.953125 L 5.3125 -3.953125 C 5.34375 -4.109375 5.320312 -4.296875 5.25 -4.515625 C 5.1875 -4.742188 5.050781 -4.945312 4.84375 -5.125 C 4.632812 -5.300781 4.332031 -5.390625 3.9375 -5.390625 C 3.53125 -5.390625 3.171875 -5.265625 2.859375 -5.015625 C 2.554688 -4.765625 2.394531 -4.410156 2.375 -3.953125 Z M 2.375 -3.953125 "/></g></g></g><g fill="#000000" fill-opacity="1"><g transform="translate(82.104986, 35.838018)"><g><path d="M 4.078125 0.1875 C 3.628906 0.1875 3.1875 0.125 2.75 0 C 2.3125 -0.132812 1.914062 -0.34375 1.5625 -0.625 C 1.21875 -0.90625 0.941406 -1.257812 0.734375 -1.6875 C 0.535156 -2.125 0.4375 -2.640625 0.4375 -3.234375 C 0.4375 -3.867188 0.546875 -4.414062 0.765625 -4.875 C 0.984375 -5.332031 1.269531 -5.707031 1.625 -6 C 1.988281 -6.300781 2.394531 -6.519531 2.84375 -6.65625 C 3.289062 -6.800781 3.742188 -6.875 4.203125 -6.875 C 4.972656 -6.875 5.65625 -6.707031 6.25 -6.375 L 6.25 -4.6875 C 6.019531 -4.84375 5.75 -4.960938 5.4375 -5.046875 C 5.125 -5.140625 4.804688 -5.1875 4.484375 -5.1875 C 4.140625 -5.1875 3.804688 -5.125 3.484375 -5 C 3.171875 -4.875 2.914062 -4.675781 2.71875 -4.40625 C 2.519531 -4.144531 2.421875 -3.785156 2.421875 -3.328125 C 2.421875 -2.898438 2.515625 -2.550781 2.703125 -2.28125 C 2.898438 -2.007812 3.15625 -1.804688 3.46875 -1.671875 C 3.78125 -1.546875 4.109375 -1.484375 4.453125 -1.484375 C 4.804688 -1.484375 5.144531 -1.523438 5.46875 -1.609375 C 5.800781 -1.691406 6.085938 -1.804688 6.328125 -1.953125 L 6.328125 -0.25 C 6.003906 -0.113281 5.65625 -0.0078125 5.28125 0.0625 C 4.90625 0.144531 4.503906 0.1875 4.078125 0.1875 Z M 4.078125 0.1875 "/></g></g></g><g fill="#000000" fill-opacity="1"><g transform="translate(88.920503, 35.838018)"><g><path d="M 0.8125 0 L 0.8125 -9.71875 L 2.75 -9.71875 L 2.75 -6.03125 C 2.988281 -6.269531 3.273438 -6.46875 3.609375 -6.625 C 3.953125 -6.78125 4.332031 -6.859375 4.75 -6.859375 C 5.332031 -6.859375 5.820312 -6.734375 6.21875 -6.484375 C 6.625 -6.242188 6.929688 -5.914062 7.140625 -5.5 C 7.347656 -5.09375 7.453125 -4.632812 7.453125 -4.125 L 7.453125 0 L 5.515625 0 L 5.515625 -3.875 C 5.515625 -4.3125 5.390625 -4.632812 5.140625 -4.84375 C 4.898438 -5.0625 4.597656 -5.171875 4.234375 -5.171875 C 3.890625 -5.171875 3.59375 -5.082031 3.34375 -4.90625 C 3.09375 -4.726562 2.894531 -4.539062 2.75 -4.34375 L 2.75 0 Z M 0.8125 0 "/></g></g></g><g fill="#000000" fill-opacity="1"><g transform="translate(97.110229, 35.838018)"><g><path d="M 0.8125 0 L 0.8125 -6.65625 L 2.53125 -6.65625 L 2.53125 -5.8125 C 2.78125 -6.101562 3.09375 -6.347656 3.46875 -6.546875 C 3.84375 -6.753906 4.269531 -6.859375 4.75 -6.859375 C 5.332031 -6.859375 5.820312 -6.734375 6.21875 -6.484375 C 6.625 -6.242188 6.929688 -5.914062 7.140625 -5.5 C 7.347656 -5.09375 7.453125 -4.632812 7.453125 -4.125 L 7.453125 0 L 5.515625 0 L 5.515625 -3.875 C 5.515625 -4.3125 5.390625 -4.632812 5.140625 -4.84375 C 4.898438 -5.0625 4.597656 -5.171875 4.234375 -5.171875 C 3.890625 -5.171875 3.59375 -5.082031 3.34375 -4.90625 C 3.09375 -4.726562 2.894531 -4.539062 2.75 -4.34375 L 2.75 0 Z M 0.8125 0 "/></g></g></g><g fill="#000000" fill-opacity="1"><g transform="translate(105.299955, 35.838018)"><g><path d="M 4.125 0.1875 C 3.476562 0.1875 2.875 0.0546875 2.3125 -0.203125 C 1.757812 -0.460938 1.304688 -0.851562 0.953125 -1.375 C 0.609375 -1.90625 0.4375 -2.554688 0.4375 -3.328125 C 0.4375 -4.109375 0.609375 -4.757812 0.953125 -5.28125 C 1.304688 -5.800781 1.757812 -6.191406 2.3125 -6.453125 C 2.875 -6.722656 3.476562 -6.859375 4.125 -6.859375 C 4.769531 -6.859375 5.367188 -6.722656 5.921875 -6.453125 C 6.484375 -6.191406 6.9375 -5.800781 7.28125 -5.28125 C 7.625 -4.757812 7.796875 -4.109375 7.796875 -3.328125 C 7.796875 -2.554688 7.625 -1.90625 7.28125 -1.375 C 6.9375 -0.851562 6.484375 -0.460938 5.921875 -0.203125 C 5.367188 0.0546875 4.769531 0.1875 4.125 0.1875 Z M 4.125 -1.546875 C 4.675781 -1.546875 5.097656 -1.710938 5.390625 -2.046875 C 5.679688 -2.390625 5.828125 -2.816406 5.828125 -3.328125 C 5.828125 -3.847656 5.679688 -4.273438 5.390625 -4.609375 C 5.097656 -4.953125 4.675781 -5.125 4.125 -5.125 C 3.5625 -5.125 3.132812 -4.953125 2.84375 -4.609375 C 2.5625 -4.273438 2.421875 -3.847656 2.421875 -3.328125 C 2.421875 -2.816406 2.5625 -2.390625 2.84375 -2.046875 C 3.132812 -1.710938 3.5625 -1.546875 4.125 -1.546875 Z M 4.125 -1.546875 "/></g></g></g><g fill="#000000" fill-opacity="1"><g transform="translate(113.545205, 35.838018)"><g><path d="M 0.828125 0 L 0.828125 -10.125 L 2.765625 -10.125 L 2.765625 0 Z M 0.828125 0 "/></g></g></g><g fill="#000000" fill-opacity="1"><g transform="translate(117.154235, 35.838018)"><g><path d="M 4.125 0.1875 C 3.476562 0.1875 2.875 0.0546875 2.3125 -0.203125 C 1.757812 -0.460938 1.304688 -0.851562 0.953125 -1.375 C 0.609375 -1.90625 0.4375 -2.554688 0.4375 -3.328125 C 0.4375 -4.109375 0.609375 -4.757812 0.953125 -5.28125 C 1.304688 -5.800781 1.757812 -6.191406 2.3125 -6.453125 C 2.875 -6.722656 3.476562 -6.859375 4.125 -6.859375 C 4.769531 -6.859375 5.367188 -6.722656 5.921875 -6.453125 C 6.484375 -6.191406 6.9375 -5.800781 7.28125 -5.28125 C 7.625 -4.757812 7.796875 -4.109375 7.796875 -3.328125 C 7.796875 -2.554688 7.625 -1.90625 7.28125 -1.375 C 6.9375 -0.851562 6.484375 -0.460938 5.921875 -0.203125 C 5.367188 0.0546875 4.769531 0.1875 4.125 0.1875 Z M 4.125 -1.546875 C 4.675781 -1.546875 5.097656 -1.710938 5.390625 -2.046875 C 5.679688 -2.390625 5.828125 -2.816406 5.828125 -3.328125 C 5.828125 -3.847656 5.679688 -4.273438 5.390625 -4.609375 C 5.097656 -4.953125 4.675781 -5.125 4.125 -5.125 C 3.5625 -5.125 3.132812 -4.953125 2.84375 -4.609375 C 2.5625 -4.273438 2.421875 -3.847656 2.421875 -3.328125 C 2.421875 -2.816406 2.5625 -2.390625 2.84375 -2.046875 C 3.132812 -1.710938 3.5625 -1.546875 4.125 -1.546875 Z M 4.125 -1.546875 "/></g></g></g><g fill="#000000" fill-opacity="1"><g transform="translate(125.399484, 35.838018)"><g><path d="M 3.984375 3.25 C 3.460938 3.25 2.960938 3.191406 2.484375 3.078125 C 2.015625 2.960938 1.578125 2.8125 1.171875 2.625 L 1.171875 0.921875 C 1.941406 1.390625 2.789062 1.625 3.71875 1.625 C 4.113281 1.625 4.472656 1.570312 4.796875 1.46875 C 5.128906 1.363281 5.394531 1.1875 5.59375 0.9375 C 5.789062 0.6875 5.890625 0.34375 5.890625 -0.09375 L 5.890625 -0.703125 C 5.671875 -0.472656 5.378906 -0.265625 5.015625 -0.078125 C 4.660156 0.0976562 4.222656 0.1875 3.703125 0.1875 C 3.003906 0.1875 2.410156 0.0195312 1.921875 -0.3125 C 1.429688 -0.644531 1.0625 -1.078125 0.8125 -1.609375 C 0.5625 -2.148438 0.4375 -2.722656 0.4375 -3.328125 C 0.4375 -3.941406 0.5625 -4.515625 0.8125 -5.046875 C 1.0625 -5.585938 1.429688 -6.023438 1.921875 -6.359375 C 2.410156 -6.691406 3.003906 -6.859375 3.703125 -6.859375 C 4.316406 -6.859375 4.816406 -6.734375 5.203125 -6.484375 C 5.597656 -6.242188 5.898438 -5.976562 6.109375 -5.6875 L 6.109375 -6.65625 L 7.8125 -6.65625 L 7.8125 -0.1875 C 7.8125 0.457031 7.703125 0.992188 7.484375 1.421875 C 7.273438 1.859375 6.988281 2.210938 6.625 2.484375 C 6.269531 2.753906 5.863281 2.945312 5.40625 3.0625 C 4.945312 3.1875 4.472656 3.25 3.984375 3.25 Z M 4.15625 -1.421875 C 4.570312 -1.421875 4.929688 -1.53125 5.234375 -1.75 C 5.535156 -1.96875 5.753906 -2.21875 5.890625 -2.5 L 5.890625 -4.125 C 5.753906 -4.40625 5.535156 -4.660156 5.234375 -4.890625 C 4.929688 -5.117188 4.570312 -5.234375 4.15625 -5.234375 C 3.613281 -5.234375 3.1875 -5.046875 2.875 -4.671875 C 2.570312 -4.296875 2.421875 -3.847656 2.421875 -3.328125 C 2.421875 -2.804688 2.570312 -2.359375 2.875 -1.984375 C 3.1875 -1.609375 3.613281 -1.421875 4.15625 -1.421875 Z M 4.15625 -1.421875 "/></g></g></g><g fill="#000000" fill-opacity="1"><g transform="translate(134.033394, 35.838018)"><g><path d="M 1.859375 3.234375 C 1.679688 3.234375 1.503906 3.21875 1.328125 3.1875 C 1.148438 3.15625 0.976562 3.117188 0.8125 3.078125 L 0.8125 1.46875 C 1.050781 1.53125 1.316406 1.5625 1.609375 1.5625 C 1.910156 1.5625 2.1875 1.460938 2.4375 1.265625 C 2.6875 1.078125 2.898438 0.78125 3.078125 0.375 L 3.1875 0.109375 L 0.046875 -6.65625 L 2.09375 -6.65625 L 4.03125 -2.203125 L 5.6875 -6.65625 L 7.6875 -6.65625 L 4.734375 0.8125 C 4.484375 1.425781 4.203125 1.90625 3.890625 2.25 C 3.578125 2.601562 3.25 2.851562 2.90625 3 C 2.570312 3.15625 2.222656 3.234375 1.859375 3.234375 Z M 1.859375 3.234375 "/></g></g></g><g fill="#000000" fill-opacity="1"><g transform="translate(66.100321, 52.108589)"><g><path d="M 0.703125 0 L 0.703125 -1.796875 L 2.484375 -1.796875 L 2.484375 -7.34375 L 0.703125 -6.671875 L 0.703125 -8.5625 L 3 -9.4375 L 4.515625 -9.4375 L 4.515625 -1.796875 L 6.09375 -1.796875 L 6.09375 0 Z M 0.703125 0 "/></g></g></g><g fill="#000000" fill-opacity="1"><g transform="translate(72.49941, 52.108589)"><g><path d="M 4.890625 0.1875 C 3.898438 0.1875 3.085938 -0.03125 2.453125 -0.46875 C 1.816406 -0.90625 1.347656 -1.492188 1.046875 -2.234375 C 0.742188 -2.984375 0.59375 -3.8125 0.59375 -4.71875 C 0.59375 -5.625 0.742188 -6.445312 1.046875 -7.1875 C 1.347656 -7.9375 1.816406 -8.53125 2.453125 -8.96875 C 3.085938 -9.40625 3.898438 -9.625 4.890625 -9.625 C 5.898438 -9.625 6.71875 -9.40625 7.34375 -8.96875 C 7.976562 -8.53125 8.445312 -7.9375 8.75 -7.1875 C 9.050781 -6.445312 9.203125 -5.625 9.203125 -4.71875 C 9.203125 -3.8125 9.050781 -2.984375 8.75 -2.234375 C 8.445312 -1.492188 7.976562 -0.90625 7.34375 -0.46875 C 6.71875 -0.03125 5.898438 0.1875 4.890625 0.1875 Z M 4.890625 -1.640625 C 5.660156 -1.640625 6.222656 -1.898438 6.578125 -2.421875 C 6.941406 -2.953125 7.125 -3.71875 7.125 -4.71875 C 7.125 -5.71875 6.941406 -6.476562 6.578125 -7 C 6.222656 -7.53125 5.660156 -7.796875 4.890625 -7.796875 C 4.140625 -7.796875 3.582031 -7.53125 3.21875 -7 C 2.863281 -6.476562 2.6875 -5.71875 2.6875 -4.71875 C 2.6875 -3.71875 2.863281 -2.953125 3.21875 -2.421875 C 3.582031 -1.898438 4.140625 -1.640625 4.890625 -1.640625 Z M 4.890625 -1.640625 "/></g></g></g><g fill="#000000" fill-opacity="1"><g transform="translate(82.299321, 52.108589)"><g><path d="M 0.703125 0 L 0.703125 -1.796875 L 2.484375 -1.796875 L 2.484375 -7.34375 L 0.703125 -6.671875 L 0.703125 -8.5625 L 3 -9.4375 L 4.515625 -9.4375 L 4.515625 -1.796875 L 6.09375 -1.796875 L 6.09375 0 Z M 0.703125 0 "/></g></g></g></svg>