<svg xmlns="http://www.w3.org/2000/svg" xmlns:xlink="http://www.w3.org/1999/xlink" width="1366" zoomAndPan="magnify" viewBox="0 0 1024.5 576" height="768" preserveAspectRatio="xMidYMid meet" version="1.0"><defs><filter x="0%" y="0%" width="100%" height="100%" id="f9ac7776e4"><feColorMatrix values="0 0 0 0 1 0 0 0 0 1 0 0 0 0 1 0 0 0 1 0" color-interpolation-filters="sRGB"/></filter><clipPath id="505c5bd31e"><path d="M 0 0.140625 L 1024 0.140625 L 1024 575.859375 L 0 575.859375 Z M 0 0.140625 " clip-rule="nonzero"/></clipPath><clipPath id="08968a74df"><path d="M 425.640625 201.640625 L 598.359375 201.640625 L 598.359375 374.359375 L 425.640625 374.359375 Z M 425.640625 201.640625 " clip-rule="nonzero"/></clipPath><clipPath id="7deabb5e5b"><path d="M 0 56 L 1023.960938 56 L 1023.960938 575.734375 L 0 575.734375 Z M 0 56 " clip-rule="nonzero"/></clipPath><clipPath id="ef3855d445"><path d="M 234 12 L 1023.960938 12 L 1023.960938 575.734375 L 234 575.734375 Z M 234 12 " clip-rule="nonzero"/></clipPath><clipPath id="d088c57cf0"><path d="M 0 201 L 1023.960938 201 L 1023.960938 575.734375 L 0 575.734375 Z M 0 201 " clip-rule="nonzero"/></clipPath><mask id="3153cea301"><g filter="url(#f9ac7776e4)"><rect x="-102.45" width="1229.4" fill="#000000" y="-57.6" height="691.2" fill-opacity="0.42"/></g></mask><clipPath id="776ce46777"><path d="M 0 0.640625 L 1023.960938 0.640625 L 1023.960938 374.621094 L 0 374.621094 Z M 0 0.640625 " clip-rule="nonzero"/></clipPath><clipPath id="a3c234c946"><rect x="0" width="1024" y="0" height="375"/></clipPath><clipPath id="dc0683f9fa"><path d="M 47 268 L 1023.960938 268 L 1023.960938 575.734375 L 47 575.734375 Z M 47 268 " clip-rule="nonzero"/></clipPath><mask id="1b2e6a3609"><g filter="url(#f9ac7776e4)"><rect x="-102.45" width="1229.4" fill="#000000" y="-57.6" height="691.2" fill-opacity="0.42"/></g></mask><clipPath id="14fec6fece"><path d="M 0.257812 0.0898438 L 976.960938 0.0898438 L 976.960938 307.621094 L 0.257812 307.621094 Z M 0.257812 0.0898438 " clip-rule="nonzero"/></clipPath><clipPath id="b7debf5d09"><rect x="0" width="977" y="0" height="308"/></clipPath></defs><g clip-path="url(#505c5bd31e)"><path fill="#ffffff" d="M 0 0.140625 L 1024 0.140625 L 1024 575.859375 L 0 575.859375 Z M 0 0.140625 " fill-opacity="1" fill-rule="nonzero"/><path fill="#ffffff" d="M 0 0.140625 L 1024 0.140625 L 1024 575.859375 L 0 575.859375 Z M 0 0.140625 " fill-opacity="1" fill-rule="nonzero"/></g><g clip-path="url(#08968a74df)"><path fill="#ffffff" d="M 425.640625 201.640625 L 598.359375 201.640625 L 598.359375 374.359375 L 425.640625 374.359375 Z M 425.640625 201.640625 " fill-opacity="1" fill-rule="nonzero"/></g><g clip-path="url(#7deabb5e5b)"><path fill="#d8eeeb" d="M -189.609375 144.058594 C 245.265625 -112.429688 658.105469 266.28125 790.328125 366.519531 C 922.554688 466.753906 1023.90625 500.734375 1023.90625 500.734375 L 1023.90625 575.488281 L -189.609375 575.488281 Z M -189.609375 144.058594 " fill-opacity="1" fill-rule="nonzero"/></g><g clip-path="url(#ef3855d445)"><path fill="#78f1b9" d="M 234.246094 575.488281 C 234.246094 365.597656 523.210938 331.570312 701.695312 331.570312 C 880.179688 331.570312 1023.90625 40.472656 1023.90625 12.851562 L 1023.90625 575.488281 Z M 234.246094 575.488281 " fill-opacity="1" fill-rule="nonzero"/></g><g clip-path="url(#d088c57cf0)"><g mask="url(#3153cea301)"><g transform="matrix(1, 0, 0, 1, 0, 201)"><g clip-path="url(#a3c234c946)"><g clip-path="url(#776ce46777)"><path fill="#2f85af" d="M -189.609375 67.5625 C -4.28125 285.414062 151.921875 20.335938 361.570312 1.839844 C 571.167969 -16.652344 1023.90625 240.222656 1023.90625 240.222656 L 1023.90625 374.488281 L -189.609375 374.488281 Z M -189.609375 67.5625 " fill-opacity="1" fill-rule="nonzero"/></g></g></g></g></g><g clip-path="url(#dc0683f9fa)"><g mask="url(#1b2e6a3609)"><g transform="matrix(1, 0, 0, 1, 47, 268)"><g clip-path="url(#b7debf5d09)"><g clip-path="url(#14fec6fece)"><path fill="#2f85af" d="M 21.53125 307.488281 C 21.53125 307.488281 -54.96875 133.273438 85.261719 26.195312 C 225.496094 -80.886719 597.320312 182.589844 729.058594 176.183594 C 860.796875 169.824219 976.90625 0.5625 976.90625 0.5625 L 976.90625 307.488281 Z M 21.53125 307.488281 " fill-opacity="1" fill-rule="nonzero"/></g></g></g></g></g></svg>