<svg xmlns="http://www.w3.org/2000/svg" xmlns:xlink="http://www.w3.org/1999/xlink" width="1366" zoomAndPan="magnify" viewBox="0 0 1024.5 576" height="768" preserveAspectRatio="xMidYMid meet" version="1.0"><defs><clipPath id="08e22ff752"><path d="M 425.640625 201.640625 L 598.359375 201.640625 L 598.359375 374.359375 L 425.640625 374.359375 Z M 425.640625 201.640625 " clip-rule="nonzero"/></clipPath><clipPath id="047bf5b8f6"><path d="M 0 155 L 373 155 L 373 575.859375 L 0 575.859375 Z M 0 155 " clip-rule="nonzero"/></clipPath><clipPath id="286fd5206b"><path d="M 0 0.140625 L 532.238281 0.140625 L 532.238281 575.859375 L 0 575.859375 Z M 0 0.140625 " clip-rule="nonzero"/></clipPath><clipPath id="9dae1f5b25"><path d="M 0 101 L 432 101 L 432 575.859375 L 0 575.859375 Z M 0 101 " clip-rule="nonzero"/></clipPath><clipPath id="f74904392e"><path d="M 0 76 L 489 76 L 489 575.859375 L 0 575.859375 Z M 0 76 " clip-rule="nonzero"/></clipPath></defs><g clip-path="url(#08e22ff752)"><path fill="#ffffff" d="M 425.640625 201.640625 L 598.359375 201.640625 L 598.359375 374.359375 L 425.640625 374.359375 Z M 425.640625 201.640625 " fill-opacity="1" fill-rule="nonzero"/></g><g clip-path="url(#047bf5b8f6)"><path fill="#b1d4e0" d="M 0.304688 575.855469 L 0.304688 155.921875 L 6.632812 158.113281 L 7.453125 158.441406 C 21.402344 164.851562 34.5625 173.9375 45.683594 184.796875 C 55.453125 194.5625 63.589844 207.03125 69.894531 221.875 C 79.488281 244.492188 78.535156 269.566406 76.324219 291.101562 C 75.648438 297.96875 74.695312 304.832031 73.730469 311.699219 C 72.667969 319.375 71.558594 327.304688 70.894531 335.089844 C 68.949219 359.164062 69.800781 378.472656 73.59375 395.832031 C 76.867188 409.929688 81.398438 422.722656 87.027344 433.792969 C 93.75 446.351562 102.996094 458.019531 114.492188 468.40625 C 127.953125 480.199219 144.214844 488.714844 161.074219 497.105469 C 182.9375 507.820312 206.792969 517.242188 231.972656 525.101562 C 248.863281 530.128906 266.351562 534.550781 283.257812 538.8125 L 297.863281 542.523438 C 322.871094 548.84375 342.214844 556.710938 358.722656 567.28125 L 372.117188 575.855469 Z M 0.304688 575.855469 " fill-opacity="1" fill-rule="nonzero"/></g><g clip-path="url(#286fd5206b)"><path fill="#c0f0f7" d="M 477.640625 575.855469 L 476.25 573.855469 C 471.429688 566.90625 465.980469 560.03125 460.0625 553.410156 C 425.046875 514.433594 378.4375 482.429688 332.183594 465.621094 C 312.949219 458.675781 292.714844 453.425781 273.144531 448.363281 C 252.691406 443.058594 231.554688 437.585938 211.273438 430.109375 C 194.941406 424.117188 181.992188 416.949219 171.6875 408.21875 C 163.71875 401.679688 158.035156 395.449219 153.871094 388.65625 C 140.039062 366.492188 142.367188 341.4375 145.941406 322.085938 C 148.476562 308.324219 151.707031 294.53125 154.824219 281.179688 L 156.773438 272.792969 C 159.519531 260.769531 162.355469 248.347656 163.121094 236.042969 C 163.949219 220.839844 161.492188 206.476562 156.007812 194.5625 C 147.878906 177.519531 133.835938 162.105469 113.109375 147.519531 C 92.894531 133.53125 70.222656 122.554688 48.285156 111.933594 C 33.144531 104.601562 17.492188 97.019531 2.632812 88.460938 L 0.304688 87.113281 L 0.304688 0.144531 L 10.527344 11.667969 C 23.738281 26.328125 40.746094 39.640625 64.046875 53.566406 C 82.289062 64.261719 101.679688 73.816406 120.429688 83.066406 C 132.992188 89.25 145.96875 95.652344 158.5625 102.367188 L 166.566406 106.675781 C 174.886719 111.125 183.492188 115.714844 191.566406 121.089844 C 197.734375 125.273438 203.9375 130.285156 210.027344 136.015625 C 244.640625 168.609375 258.402344 198.792969 252.089844 228.277344 C 249.617188 240.171875 243.90625 250.667969 238.386719 260.824219 C 236.210938 264.828125 234.039062 268.820312 232.074219 272.894531 C 224.371094 289.21875 215.984375 310.636719 219.742188 331.152344 C 222.507812 345.511719 229.507812 358.5625 239.441406 367.875 C 258.539062 385.253906 283.640625 395.257812 303.363281 402.035156 C 314.515625 405.734375 326.109375 408.957031 337.332031 412.066406 C 347.117188 414.777344 356.894531 417.496094 366.578125 420.558594 C 387.269531 427 407.523438 434.710938 426.757812 443.46875 C 449.167969 453.753906 472.4375 465.421875 489.328125 484.9375 C 498.648438 495.488281 506.078125 507.011719 511.371094 519.152344 C 515.535156 528.074219 518.765625 537.523438 521.894531 546.664062 C 523.332031 550.863281 524.757812 555.058594 526.296875 559.214844 C 527.53125 562.660156 528.886719 566.015625 530.332031 569.335938 L 533.1875 575.855469 Z M 477.640625 575.855469 " fill-opacity="1" fill-rule="nonzero"/></g><g clip-path="url(#9dae1f5b25)"><path fill="#56aeff" d="M 354.847656 575.855469 L 353.703125 575.117188 C 338.058594 565.105469 319.589844 557.621094 295.570312 551.546875 L 280.972656 547.84375 C 263.976562 543.550781 246.386719 539.105469 229.253906 534.011719 C 203.5625 525.992188 179.261719 516.398438 156.953125 505.457031 C 139.492188 496.769531 122.648438 487.941406 108.308594 475.363281 C 95.957031 464.214844 86.035156 451.691406 78.769531 438.09375 C 72.75 426.28125 67.964844 412.773438 64.507812 397.878906 C 60.507812 379.535156 59.589844 359.355469 61.617188 334.316406 C 62.308594 326.269531 63.425781 318.210938 64.507812 310.417969 C 65.457031 303.667969 66.390625 296.929688 67.054688 290.171875 C 69.148438 269.792969 70.09375 246.183594 61.328125 225.511719 C 55.488281 211.769531 48.023438 200.304688 39.136719 191.417969 C 28.804688 181.332031 16.554688 172.875 3.742188 166.980469 L 1.03125 165.734375 L 0.304688 162.460938 L 0.304688 101.019531 L 6.777344 103.773438 C 20.292969 109.511719 30.332031 114.515625 39.328125 119.988281 C 61.871094 133.757812 79.578125 151.449219 90.539062 171.144531 C 109.308594 205.742188 105.734375 236.898438 101.960938 269.894531 C 100.789062 280.160156 99.570312 290.78125 99.003906 301.742188 C 98.167969 323.886719 100.097656 342.957031 104.925781 359.972656 C 111.691406 382.964844 121.511719 402.554688 134.089844 418.175781 C 167.277344 459.257812 206.875 467.769531 256.992188 478.554688 L 263.011719 479.855469 C 293.871094 486.546875 333.710938 496.953125 368.164062 518.132812 C 389.917969 531.429688 408.496094 547.835938 424.9375 568.28125 L 431.03125 575.855469 Z M 354.847656 575.855469 " fill-opacity="1" fill-rule="nonzero"/></g><g clip-path="url(#f74904392e)"><path fill="#0c6980" d="M 419.082031 575.855469 L 417.679688 574.117188 C 401.921875 554.519531 384.132812 538.804688 363.296875 526.074219 C 330.03125 505.628906 291.179688 495.496094 261.039062 488.949219 L 255.039062 487.660156 C 205.171875 476.9375 162.101562 467.667969 126.84375 424.023438 C 113.492188 407.445312 103.105469 386.765625 95.976562 362.566406 C 90.867188 344.539062 88.820312 324.523438 89.703125 301.332031 C 90.285156 290.011719 91.519531 279.242188 92.710938 268.828125 C 96.46875 235.972656 99.722656 207.597656 82.378906 175.628906 C 72.222656 157.378906 55.652344 140.871094 34.480469 127.9375 C 25.894531 122.71875 16.226562 117.90625 3.140625 112.34375 L 0.304688 111.140625 L 0.304688 76.363281 L 7.289062 80.382812 C 21.847656 88.777344 37.355469 96.289062 52.351562 103.546875 C 74.59375 114.324219 97.605469 125.464844 118.441406 139.878906 C 140.539062 155.441406 155.570312 172.027344 164.4375 190.617188 C 170.578125 203.957031 173.332031 219.835938 172.414062 236.589844 C 171.605469 249.683594 168.6875 262.492188 165.847656 274.867188 L 163.894531 283.296875 C 160.800781 296.539062 157.601562 310.234375 155.089844 323.777344 C 151.824219 341.464844 149.640625 364.273438 161.792969 383.753906 C 165.421875 389.667969 170.449219 395.160156 177.652344 401.0625 C 187.164062 409.128906 199.199219 415.757812 214.484375 421.371094 C 234.339844 428.679688 255.253906 434.101562 275.472656 439.347656 C 295.253906 444.46875 315.707031 449.769531 335.359375 456.863281 C 383.011719 474.179688 430.988281 507.101562 467 547.199219 C 473.175781 554.109375 478.859375 561.285156 483.90625 568.542969 L 488.980469 575.855469 Z M 419.082031 575.855469 " fill-opacity="1" fill-rule="nonzero"/></g></svg>